<svg xmlns="http://www.w3.org/2000/svg" viewBox="0 0 1024 1024" role="img" aria-labelledby="title desc">
  <title id="title">Zombie app icon</title>
  <desc id="desc">Original side-view cartoon zombie icon on a white background, inspired by classic shambling zombie art without copying a specific illustration.</desc>
  <style>
    .outline {
      stroke: #151515;
      stroke-width: 12;
      stroke-linecap: round;
      stroke-linejoin: round;
      vector-effect: non-scaling-stroke;
    }
    .detail {
      fill: none;
      stroke: #151515;
      stroke-width: 8;
      stroke-linecap: round;
      stroke-linejoin: round;
      vector-effect: non-scaling-stroke;
    }
  </style>
  <rect width="1024" height="1024" fill="#FFFFFF"/>
  <g transform="translate(24 22) rotate(-4 420 500)">
    <g class="outline">
      <path fill="#A8C45A" d="M262 166C313 125 385 107 458 119C525 130 577 172 592 227C604 271 594 325 560 367C525 410 472 428 408 426C337 424 273 394 236 345C211 313 201 272 208 233C215 203 232 180 262 166Z"/>
      <path fill="#8AA13F" d="M289 165C319 139 357 124 404 121C373 145 353 176 346 213C320 209 301 192 289 165Z"/>
      <path fill="#8AA13F" d="M220 252C191 262 171 282 167 309C163 336 184 361 218 369C232 339 233 301 220 252Z"/>
      <path fill="#F7F0C8" d="M353 195C391 167 445 163 484 185C471 218 470 250 478 282C438 291 393 283 356 256C334 239 332 214 353 195Z"/>
      <ellipse cx="456" cy="235" rx="34" ry="26" transform="rotate(-8 456 235)" fill="#EFE4B7"/>
      <path fill="#742434" d="M362 275C403 245 465 246 527 278L516 333C470 364 411 369 365 347L352 305Z"/>
      <path fill="#FFF7E4" d="M364 278L386 276L383 307L360 309Z"/>
      <path fill="#FFF7E4" d="M394 274L416 274L415 307L391 307Z"/>
      <path fill="#FFF7E4" d="M424 274L446 276L445 307L421 305Z"/>
      <path fill="#FFF7E4" d="M454 277L476 281L474 311L451 307Z"/>
      <path fill="#FFF7E4" d="M484 282L505 288L501 317L479 311Z"/>
      <path fill="#A8C45A" d="M350 347C378 335 409 333 440 336L432 391C395 390 363 398 336 416L320 381C326 366 336 354 350 347Z"/>
      <path fill="#B5B7AE" d="M317 391C350 370 397 365 441 372C486 379 521 399 543 431L533 585C496 608 444 622 392 625C354 626 318 621 284 607L281 454C283 423 296 401 317 391Z"/>
      <path fill="#969992" d="M454 376C494 385 525 404 543 431L533 585C506 602 473 614 435 620C454 566 460 484 454 376Z"/>
      <path fill="#A8C45A" d="M430 414C508 399 603 407 695 434L688 486C594 497 507 489 418 462Z"/>
      <path fill="#A8C45A" d="M685 435C733 439 780 453 820 476L810 528C767 526 721 514 678 489Z"/>
      <path fill="#A8C45A" d="M804 475C826 478 847 486 869 500L860 542C836 542 811 537 789 524Z"/>
      <path fill="#A8C45A" d="M391 454C443 473 495 505 543 548L509 590C454 573 405 546 358 508Z"/>
      <path fill="#A8C45A" d="M509 548C540 562 567 581 590 606L557 644C528 635 503 619 481 596Z"/>
      <path fill="#35526C" d="M329 613C375 621 420 622 470 616L473 689C447 716 414 738 377 752C339 766 302 767 269 755L257 687L281 616Z"/>
      <path fill="#24394A" d="M434 616L473 616L473 689C447 716 414 738 377 752C419 716 438 672 434 616Z"/>
      <path fill="#35526C" d="M312 687C278 726 240 770 196 818L172 843L128 842L168 791C210 737 253 691 298 654Z"/>
      <path fill="#A8C45A" d="M116 831C153 819 201 819 242 833L237 883C201 905 151 907 114 892L109 856Z"/>
      <path fill="#35526C" d="M385 693C426 711 464 745 499 795L470 831C429 816 392 790 360 758L357 716Z"/>
      <path fill="#A8C45A" d="M458 787C497 777 546 785 588 813L578 864C543 885 493 888 453 872L442 824Z"/>
      <path fill="#A8C45A" d="M106 881C147 867 198 869 241 885L232 926C190 944 137 946 98 931L93 900Z"/>
      <path fill="#A8C45A" d="M446 870C494 857 548 859 595 878L588 921C543 938 488 940 443 927L437 896Z"/>
    </g>
    <g class="detail">
      <path d="M338 192C361 175 392 167 425 169"/>
      <path d="M431 204C451 198 475 201 493 212"/>
      <path d="M465 240C488 253 502 272 508 296"/>
      <path d="M380 337C414 348 450 347 483 334"/>
      <path d="M297 608C325 613 355 613 384 607"/>
      <path d="M516 440C571 448 625 451 678 449"/>
      <path d="M361 744C392 747 423 760 449 783"/>
      <path d="M144 851C176 843 211 844 240 854"/>
    </g>
  </g>
</svg>
