<svg xmlns="http://www.w3.org/2000/svg" viewBox="0 0 1024 1024" role="img" aria-labelledby="title desc">
  <title id="title">Original zombie app icon</title>
  <desc id="desc">A white app icon background with an original cartoon walking zombie inspired by classic game art but not copied from any specific source.</desc>
  <rect width="1024" height="1024" fill="#FFFFFF"/>
  <g stroke="#111111" stroke-width="16" stroke-linecap="round" stroke-linejoin="round">
    <path fill="#95B84C" d="M249 232C267 145 347 92 435 108C518 123 569 196 550 275C534 342 465 388 387 386C300 384 229 321 249 232Z"/>
    <path fill="#7E983E" d="M282 160C304 134 343 118 386 119C357 142 338 173 329 210C306 206 291 189 282 160Z"/>
    <path fill="#7E983E" d="M255 246C222 254 202 275 205 302C208 330 238 346 275 339C281 310 286 278 255 246Z"/>
    <path fill="#B9D86A" d="M330 151C366 126 421 126 460 147C435 172 423 206 421 241C382 233 347 201 330 151Z"/>
    <ellipse cx="391" cy="217" rx="68" ry="53" fill="#FFF8D7"/>
    <ellipse cx="473" cy="226" rx="29" ry="22" fill="#E9E6C8"/>
    <path fill="none" d="M320 194C347 168 386 159 424 167"/>
    <path fill="none" d="M447 197C468 186 494 188 513 201"/>
    <path fill="#7C2030" d="M374 271C404 250 450 250 488 268L483 322C449 343 402 346 366 326L359 287Z"/>
    <path fill="#FFFFFF" d="M379 272L399 269L394 296L373 299Z"/>
    <path fill="#FFFFFF" d="M410 269L430 269L427 299L405 299Z"/>
    <path fill="#FFFFFF" d="M440 270L459 272L457 298L437 297Z"/>
    <path fill="#FFFFFF" d="M467 275L484 280L481 304L463 300Z"/>
    <path fill="#95B84C" d="M444 301C470 312 491 334 501 359L452 378C438 358 416 344 392 341L401 307Z"/>
    <path fill="#95B84C" d="M400 365L465 365L465 425L394 425Z"/>
    <path fill="#C7CBC3" d="M340 387C379 363 437 358 486 369C539 381 575 414 588 462L557 600C505 623 419 630 353 611L306 477C305 434 319 401 340 387Z"/>
    <path fill="#A2A79F" d="M502 378C544 387 576 416 588 462L557 600C527 613 485 620 442 620C503 578 525 488 502 378Z"/>
    <path fill="#95B84C" d="M473 410C550 395 641 405 727 436L717 493C628 500 544 484 469 459Z"/>
    <path fill="#95B84C" d="M719 435C766 442 812 454 846 475L833 532C797 529 758 518 713 494Z"/>
    <path fill="#95B84C" d="M816 476L865 488L847 550L801 537Z"/>
    <path fill="#95B84C" d="M431 462C509 476 596 520 664 576L619 626C531 590 456 546 399 497Z"/>
    <path fill="#95B84C" d="M619 576C649 589 675 607 695 632L653 676C626 664 601 646 579 623Z"/>
    <path fill="#2A4D67" d="M362 606C418 620 466 622 520 611L525 703C491 731 451 748 408 750L343 726L321 655Z"/>
    <path fill="#223D54" d="M478 616L525 611L525 703C496 728 462 744 426 749C467 714 484 668 478 616Z"/>
    <path fill="#2A4D67" d="M408 698C451 708 489 738 516 787L469 908C425 925 372 924 334 902L349 811Z"/>
    <path fill="#95B84C" d="M300 799C339 790 381 797 414 816L395 901C358 925 298 927 262 903L253 847Z"/>
    <path fill="#95B84C" d="M438 742C493 733 548 757 592 803L560 905C517 930 459 930 420 906L424 820Z"/>
    <path fill="#95B84C" d="M232 891C284 875 343 877 391 897L378 948C327 965 269 963 223 940Z"/>
    <path fill="#95B84C" d="M411 899C470 882 536 883 588 907L578 955C523 971 454 971 403 950Z"/>
    <path fill="none" d="M319 611C344 615 366 615 391 609"/>
    <path fill="none" d="M548 443C597 451 648 456 707 454"/>
    <path fill="none" d="M434 786C461 785 491 793 517 809"/>
    <path fill="none" d="M281 851C319 842 358 845 391 858"/>
  </g>
</svg>
